<svg width="25" height="25" viewBox="0 0 25 25" fill="none" xmlns="http://www.w3.org/2000/svg">
<path d="M10.5762 17.2796C10.4449 17.2798 10.3149 17.2542 10.1935 17.2041C10.0722 17.154 9.96197 17.0804 9.86915 16.9876L5.62715 12.7446C5.53158 12.6524 5.45532 12.5421 5.40283 12.4201C5.35033 12.2982 5.32266 12.167 5.32141 12.0342C5.32016 11.9014 5.34537 11.7697 5.39557 11.6468C5.44576 11.5238 5.51993 11.4121 5.61376 11.3182C5.70758 11.2242 5.81918 11.1499 5.94204 11.0995C6.0649 11.0492 6.19656 11.0238 6.32934 11.0248C6.46212 11.0259 6.59336 11.0534 6.7154 11.1057C6.83744 11.158 6.94784 11.2341 7.04015 11.3296L10.5752 14.8646L16.9402 8.50156C17.1277 8.31392 17.382 8.20845 17.6473 8.20836C17.9126 8.20827 18.167 8.31355 18.3547 8.50106C18.5423 8.68857 18.6478 8.94294 18.6479 9.20821C18.6479 9.47348 18.5427 9.72792 18.3552 9.91556L11.2832 16.9876C11.1903 17.0804 11.0801 17.154 10.9588 17.2041C10.8374 17.2542 10.7074 17.2798 10.5762 17.2796Z" fill="#2FAB73"/>
</svg>
